<?xml version="1.0" encoding="utf-8"?>
<!-- Generator: Adobe Illustrator 16.0.0, SVG Export Plug-In . SVG Version: 6.00 Build 0)  -->
<!DOCTYPE svg PUBLIC "-//W3C//DTD SVG 1.1//EN" "http://www.w3.org/Graphics/SVG/1.1/DTD/svg11.dtd">
<svg version="1.1" id="Layer_3" xmlns="http://www.w3.org/2000/svg" xmlns:xlink="http://www.w3.org/1999/xlink" x="0px" y="0px"
	 width="72px" height="72px" viewBox="0 0 72 72" enable-background="new 0 0 72 72" xml:space="preserve">
<path fill="none" d="M72,36c0,19.9-16.1,36-36,36C16.1,72,0,55.9,0,36C0,16.1,16.1,0,36,0C55.9,0,72,16.1,72,36"/>
<path fill="#A77B46" d="M58.2,28.9l4.3-4.7h-9.6C48.1,20.9,42.3,19,36,19s-12.1,1.9-16.9,5.2H9.5l4.3,4.7
	c-2.7,2.4-4.3,5.9-4.3,9.799C9.5,46,15.4,51.9,22.7,51.9c3.5,0,6.6-1.301,9-3.5L36,53l4.2-4.6c2.399,2.199,5.5,3.5,9,3.5
	c7.3,0,13.2-5.9,13.2-13.201C62.5,34.8,60.8,31.3,58.2,28.9 M22.8,47.6c-5,0-9-4-9-9c0-5,4-9,9-9s9,4,9,9
	C31.7,43.6,27.7,47.6,22.8,47.6 M36,38.4c0-5.9-4.3-11-9.9-13.1c3.1-1.3,6.4-2,9.9-2s6.9,0.7,9.9,2C40.3,27.5,36,32.5,36,38.4
	 M49.2,47.6c-5,0-9-4-9-9c0-5,4-9,9-9s9,4,9,9C58.2,43.6,54.2,47.6,49.2,47.6 M49.2,34c-2.601,0-4.7,2.1-4.7,4.699
	c0,2.602,2.1,4.701,4.7,4.701c2.6,0,4.7-2.1,4.7-4.701C53.9,36.1,51.8,34,49.2,34 M27.5,38.699c0,2.602-2.1,4.701-4.7,4.701
	c-2.6,0-4.7-2.1-4.7-4.701C18.1,36.1,20.2,34,22.8,34C25.4,34,27.5,36.1,27.5,38.699"/>
</svg>
